<svg xmlns="http://www.w3.org/2000/svg" enable-background="new 0 0 73 73" viewBox="0 0 73 73" id="SendEmail">
  <path d="M63.2969666,26.2739925c0.0168457-0.2174072-0.0498657-0.439209-0.22052-0.6015625c-2.5106201-2.3869629-5.1604004-4.8244629-8.0820923-7.4375c-0.0932007-1.7958984-0.2398071-3.7207041-0.453083-5.8828135c-0.0427551-0.4381876-0.4509239-0.7451601-0.8886528-0.6630859c-1.7733765,0.34375-3.40625,0.6359863-4.9871216,0.8947754c-3.1430664-2.7832031-6.2140503-5.5133057-9.18573-8.2600098c-0.265625-0.2460938-0.671875-0.265625-0.9628906-0.0458984c-4.2352295,3.2177734-8.7001324,6.5217285-13.6319561,10.0898438c-2.0505981-0.0595703-4.0708008-0.1794434-6.0057373-0.3652344c-0.4691181-0.0424538-0.8516331,0.3436823-0.8193359,0.7978516c0.1019287,1.5095224,0.1274414,2.9991465,0.0896606,4.4455576l-5.4364624,3.9140625c-0.2101774,0.0555172-0.4250517,0.1396313-0.5284424,0.482666c-0.6420288,0.4880371-1.1439209,1.2171631-1.3897095,2.0557861v20.3690166c-1.8233938,2.9454002-2.3092766,7.362114-0.0965576,11.8930664c4.8452988,12.4180183,24.5439281,16.6884575,38.864624-0.3859863l1.1177979,0.0062256c0.4158783,0.2996407,2.8804131,2.1765442,3.053772,2.1418457c0.486084-0.09729,1.2543945-0.4456787,1.7377319-0.5560303c-0.0095215-0.0102539-0.0198975-0.0209961-0.0294189-0.0310059c0.4801178-0.2751999,0.3891335-0.7439194,0.4244385-1.5264893c5.2109528,0.0219498,6.7470169,0.0726204,7.2942886,0.0032883c0.5499191-0.0696678,0.5892334-0.4910774,0.6036453-0.8690605c0.0580063-1.5212212-0.1564217-7.1998177-0.4338837-30.3482151C63.330719,26.3516293,63.3049011,26.3157406,63.2969666,26.2739925z M53.7658997,56.2896156l-3.1923828-2.8916016c-0.2998047-0.2714844-0.7626953-0.2558594-1.0429688,0.0341797c-4.7902184,4.950367-7.1447182,8.2060852-12.2792969,10.4912109c-8.5404396,3.8232307-17.1271267,1.9640312-21.782774-2.1418457c7.5705433,4.4103966,16.9374332,1.3756256,23.4536724-4.4411621c2.3880119-2.1043701,4.5633888-4.5400238,6.5966797-6.6728516c0.3069115-0.3234978,0.2633858-0.8322372-0.0722656-1.1015625l-4.4697266-3.5966797c3.8896179-0.6764526,7.8243332-1.1787186,13.4029541-1.8126221c-0.1704407,3.8365936,0.1253433,8.7606926,0.0228271,12.6798096c0,0.0007324,0.0003662,0.0014648,0.0003662,0.0021973c-0.0003662,0.0092773-0.0006714,0.0185547-0.0013428,0.0280762C54.3012886,56.7756577,53.6655464,56.1985092,53.7658997,56.2896156z M44.1641541,38.163517c1.7264404,1.8739014,3.3860474,3.6362305,4.800415,5.1257324c-2.9157104,0.3585205-6.2634277,0.8193359-9.8754272,1.49646c-0.4205475,0.0784073-0.7118683,0.5034485-0.578064,0.9510498c0.0244141,0.5180664-0.0167236,1.0394287-0.1381836,1.5435791c1.5233765,1.2801514,3.0511475,2.6364746,4.5750732,3.9261475c-1.5693321,1.6712608-3.1119728,3.2976189-4.8132324,4.8204346l-24.2087994-0.1147461c8.371973-7.86063,13.1948299-12.3868256,18.51898-17.394043l4.6813354,3.2919922c0.2402344,0.1699219,0.5576172,0.1816406,0.8125,0.0332031L44.1641541,38.163517z M12.7265949,57.4060707l23.6412334,0.1120605C27.1815128,64.6781845,17.1410809,63.3392487,12.7265949,57.4060707z M13.4345417,54.3152504l0.2073364-29.0197735L31.1926594,37.637516C25.3293686,43.1500473,17.940136,50.0850601,13.4345417,54.3152504z M14.2571125,23.8953304l3.8133545-2.7441406c-0.1035156,1.6923828-0.2965088,3.3718262-0.5710449,5.0239258L14.2571125,23.8953304z M55.8337097,48.286808c-0.0182495-1.6862793-0.0166626-3.4307861,0.0894165-4.9346924c0.0315323-0.4445763-0.3464508-0.8848648-0.8862915-0.7727051c-0.2758026,0.0106087-3.7880058,0.4335136-4.2146606,0.4865723c-1.4974976-1.5722656-3.3723145-3.5544434-5.3372192-5.6832275l16.3649292-9.6732159l0.3991699,27.2756329C59.7076492,52.2973137,57.4880371,50.0046234,55.8337097,48.286808z M55.087616,20.3368587c2.2587891,2.0335693,4.3600464,3.9700928,6.3638916,5.8656006l-6.4259033,3.798584C55.2059631,26.939764,55.2267761,23.7031918,55.087616,20.3368587z M38.9241028,5.8521166c2.5407104,2.338623,5.1578979,4.6704102,7.8197021,7.0302734c-6.932373,1.0600586-13.3081055,1.5684814-19.3693218,1.5300293C31.4884357,11.4229174,35.3011169,8.599431,38.9241028,5.8521166z M25.0920734,15.8784838c9.3606853,0.265008,18.7186108-0.792058,28.0351543-2.5615234c0.6787376,7.2569838,0.6737633,12.9749098,0.3426514,17.6036377l-15.8758545,9.3846416L18.8579426,27.1304379c0.6995697-3.8536072,0.9436073-7.751749,0.7507324-11.555665C21.3879719,15.7271166,23.2287922,15.8286791,25.0920734,15.8784838z M55.8669128,50.4832191c1.882019,1.9509277,3.6782837,3.8244629,5.4017334,5.6488037l-5.3513794-0.0230713C55.9399986,54.4482498,55.898407,52.2406998,55.8669128,50.4832191z" fill="#3b82f6" class="color000000 svgShape"></path>
  <path d="M25.2248859 21.9107113c5.5605965 1.7691612 11.6942463.5403671 22.1494122-.7021484.9681206-.1149788.8291588-1.5854492-.1777344-1.4902344-11.014576 1.3094635-16.536972 2.3456707-21.5165997.7626953-.4384556-.1397038-.7717075.0931053-.9084244.4129581C24.613657 21.2633591 24.7178822 21.7488213 25.2248859 21.9107113zM43.9221497 28.7027035c-1.3057823-.5322876-2.5888977-.0086403-3.8876953.4794922-3.6005859 1.3330078-7.6865234 1.2207031-11.2080059-.3115234-.4519062-.1987457-.8293304.0459442-.9797745.3898487-.1504459.3439064-.0739079.7870312.3821182.9851513 7.712862 3.3567219 13.7101383-.7366581 15.1249981-.1542969.3808594.1572266.8212891-.0273438.9785156-.4101563C44.4885559 29.29743 44.3049622 28.85993 43.9221497 28.7027035z" fill="#3b82f6" class="color000000 svgShape"></path>
</svg>
