<svg xmlns="http://www.w3.org/2000/svg" viewBox="0 0 53 53" id="VerifiedEmail">
  <path d="M30.556 44.653H21.46a1 1 0 1 0 0 2h9.096a1 1 0 1 0 0-2zm-13.923 0H14.21a1 1 0 1 0 0 2h2.423a1 1 0 1 0 0-2z" fill="#3b82f6" class="color000000 svgShape"></path>
  <path d="M9.302 6.517V17.47l-4.976 3.764c-1.165.874-1.805 2.302-1.805 3.622v21.075c0 2.474 2.019 4.552 4.552 4.552h38.854c2.61 0 4.552-2.175 4.552-4.552V24.856c0-1.324-.63-2.74-1.804-3.622l-4.973-3.76V6.517c0-2.205-1.794-4-4-4h-26.4c-2.206 0-4 1.795-4 4zM48.48 45.931c0 .306-.054.6-.159.878L34.067 36.016c26.15-19.848-9.883 7.484 14.412-10.915v20.83zm-43.958 0V25.105l14.41 10.912L4.678 46.81a2.506 2.506 0 0 1-.157-.88zm1.01-23.1L9.3 19.98v6.232l-4.083-3.09c.098-.106.2-.207.316-.293zM41.7 27.71c-.956.725 3.45-2.62-9.288 7.05l-3.101-2.355a4.72 4.72 0 0 0-5.624.005l-3.097 2.35-9.288-7.031V11.342h30.4L41.7 27.71zM7.073 48.482c-.331 0-.67-.067-1.008-.214l18.823-14.254a2.696 2.696 0 0 1 3.219-.003C39.052 42.3 41.829 44.402 46.935 48.27c-.349.151-.69.213-1.008.213H7.073zm40.71-25.362-4.081 3.077v-6.216c3.933 2.996 3.757 2.791 4.08 3.139zM41.701 6.517v2.825h-30.4V6.517c0-1.103.898-2 2-2h26.4c1.102 0 2 .897 2 2z" fill="#3b82f6" class="color000000 svgShape"></path>
  <path d="M15.817 7.978c.553 0 1.049-.496 1.049-1.048s-.496-1.049-1.05-1.049-1.05.496-1.05 1.049.498 1.048 1.05 1.048zm3.616 0c.553 0 1.048-.496 1.048-1.048s-.495-1.049-1.048-1.049-1.052.496-1.052 1.049.5 1.048 1.052 1.048zm3.616 0c.553 0 1.048-.496 1.048-1.048S23.602 5.88 23.05 5.88s-1.051.496-1.051 1.049.499 1.048 1.051 1.048zm4.38-.048h9.81a1 1 0 1 0 0-2h-9.81a1 1 0 1 0 0 2zM26.5 29.478c4.449 0 8.068-3.62 8.068-8.068s-3.62-8.068-8.068-8.068c-4.449 0-8.068 3.62-8.068 8.068s3.62 8.068 8.068 8.068zm0-14.136c3.346 0 6.068 2.722 6.068 6.068s-2.722 6.068-6.068 6.068-6.068-2.722-6.068-6.068 2.723-6.068 6.068-6.068z" fill="#3b82f6" class="color000000 svgShape"></path>
  <path d="M24.333 23.92c.292.293.677.44 1.061.44.385 0 .77-.147 1.062-.44l3.753-3.753a1 1 0 1 0-1.414-1.414l-3.401 3.4-1.187-1.187a1 1 0 1 0-1.415 1.414l1.541 1.54z" fill="#3b82f6" class="color000000 svgShape"></path>
</svg>
